<svg width="894" height="593" viewBox="0 0 894 593" fill="none" xmlns="http://www.w3.org/2000/svg">
<path d="M452.893 166.669C444.922 153.499 435.476 139.438 420.683 135.137C403.552 130.157 385.954 140.05 371.027 149.813C326.387 179.009 283.397 210.649 242.255 244.588L242.3 245.1C274.331 242.893 306.361 240.687 338.392 238.48C361.534 236.886 385.471 235.072 405.922 224.136C413.683 219.986 421.247 214.443 430.041 214.057C440.967 213.577 450.493 221.199 457.98 229.163C502.265 276.27 515.08 348.307 564.764 389.694C533.435 312.515 496.027 237.939 452.893 166.669Z" fill="#F2F2F2"/>
<path d="M725.107 566.22C720.21 560.043 718.209 558.596 713.378 552.362C674.045 501.545 637.075 449.012 602.468 394.762C578.962 357.918 556.621 320.366 535.446 282.107C525.365 263.918 515.561 245.586 506.032 227.111C498.639 212.787 491.41 198.376 484.346 183.88C482.326 179.74 480.363 175.58 478.41 171.412C473.808 161.608 469.291 151.757 464.441 142.086C458.915 131.065 452.188 119.51 442.04 112.105C437.422 108.596 431.9 106.474 426.118 105.985C417.858 105.452 410.235 108.859 403.07 112.581C350.645 139.888 301.565 174.124 257.173 213.082C212.667 252.127 172.886 296.238 138.64 344.516C137.593 346.011 135.115 344.583 136.173 343.079C140.337 337.197 144.583 331.378 148.912 325.623C202.74 254.11 268.741 192.613 343.899 143.942C356.543 135.757 369.426 127.955 382.546 120.538C389.158 116.797 395.8 113.104 402.555 109.639C409.177 106.241 416.209 103.186 423.775 103.072C449.52 102.672 462.85 131.797 472.007 151.395C474.884 157.563 477.797 163.711 480.744 169.841C491.883 193.113 503.45 216.172 515.446 239.018C522.85 253.124 530.415 267.147 538.143 281.088C562.192 324.5 587.753 367.033 614.827 408.687C650.691 463.863 686.27 512.605 727.127 564.203C728.251 565.63 726.241 567.667 725.107 566.22Z" fill="#E4E4E4"/>
<path d="M254.628 198.7C253.132 197.034 251.646 195.369 250.14 193.703C238.268 180.587 225.529 167.623 209.226 160.104C201.452 156.406 192.967 154.441 184.357 154.346C175.458 154.374 166.758 156.706 158.536 159.971C154.648 161.522 150.846 163.283 147.102 165.158C142.823 167.309 138.621 169.603 134.439 171.916C126.587 176.256 118.837 180.787 111.19 185.508C95.9728 194.902 81.2325 205.013 66.9687 215.842C59.5745 221.458 52.3329 227.257 45.244 233.241C38.6505 238.799 32.1903 244.507 25.8636 250.364C24.5106 251.611 22.4905 249.593 23.8435 248.346C25.5109 246.795 27.1974 245.253 28.884 243.73C33.6481 239.428 38.4885 235.208 43.4053 231.071C52.3711 223.513 61.5691 216.248 70.9992 209.274C85.6633 198.424 100.832 188.309 116.506 178.931C124.339 174.248 132.279 169.762 140.327 165.472C142.757 164.178 145.215 162.912 147.702 161.713C153.345 158.87 159.208 156.485 165.234 154.584C173.77 151.825 182.802 150.939 191.713 151.985C200.317 153.235 208.606 156.1 216.144 160.428C232.151 169.365 244.566 183.185 256.648 196.673C257.868 198.043 255.857 200.07 254.628 198.7Z" fill="#E4E4E4"/>
<path d="M582.614 334.615L620.972 320.601L640.017 313.643C646.219 311.377 652.407 308.797 658.819 307.174C664.391 305.584 670.307 305.659 675.837 307.391C680.769 309.214 685.283 312.009 689.111 315.61C693.022 319.208 696.661 323.09 699.999 327.225C704.145 332.202 708.23 337.232 712.333 342.245C729.269 362.935 746.094 383.714 762.809 404.584C779.523 425.453 796.125 446.41 812.616 467.456C829.146 488.554 845.563 509.74 861.867 531.014C863.864 533.62 865.86 536.228 867.853 538.837C868.955 540.278 871.439 538.857 870.322 537.395C853.898 515.907 837.36 494.507 820.707 473.195C804.013 451.832 787.204 430.559 770.28 409.378C753.356 388.196 736.318 367.106 719.165 346.109C714.892 340.878 710.612 335.652 706.324 330.432C702.708 326.029 699.132 321.579 695.165 317.481C687.884 309.959 678.787 303.311 667.898 303.13C661.496 303.024 655.299 305.054 649.351 307.203C642.939 309.521 636.541 311.882 630.137 314.221L591.511 328.334L581.854 331.862C580.141 332.488 580.881 335.249 582.614 334.615L582.614 334.615Z" fill="#E4E4E4"/>
<path d="M204.178 176.608C184.686 166.601 159.723 168.561 141.811 181.064C175.977 186.952 209.769 194.83 243.015 204.659C229.21 196.577 218.41 183.915 204.178 176.608Z" fill="#F2F2F2"/>
<path d="M141.619 181.029L137.866 184.076C139.136 183.009 140.455 182.009 141.811 181.063C141.747 181.052 141.683 181.04 141.619 181.029Z" fill="#F2F2F2"/>
<path d="M687.667 334.756C683.891 330.164 679.809 325.357 674.161 323.492L668.888 323.7C709.027 394.55 763.237 456.458 828.191 505.624C781.349 448.668 734.508 391.712 687.667 334.756Z" fill="#F2F2F2"/>
<path d="M359.78 296.88C362.22 305.736 367.717 313.444 375.299 318.641C378.23 320.635 381.698 322.547 382.701 325.945C383.228 328.111 382.903 330.396 381.793 332.33C380.684 334.239 379.335 335.998 377.779 337.564L377.637 338.096C370.363 333.79 363.443 328.343 359.425 320.911C355.407 313.48 354.846 303.74 359.78 296.88" fill="#F2F2F2"/>
<path d="M601.954 507.647C604.394 516.503 609.891 524.211 617.473 529.408C620.404 531.402 623.872 533.314 624.875 536.712C625.403 538.878 625.078 541.163 623.967 543.097C622.859 545.006 621.51 546.765 619.954 548.331L619.812 548.863C612.538 544.557 605.618 539.11 601.599 531.678C597.581 524.247 597.02 514.507 601.954 507.647" fill="#F2F2F2"/>
<path d="M118.644 493.112C121.085 501.968 126.582 509.676 134.164 514.872C137.095 516.866 140.563 518.778 141.565 522.176C142.093 524.342 141.768 526.628 140.657 528.561C139.549 530.47 138.2 532.229 136.644 533.796L136.502 534.327C129.228 530.021 122.308 524.574 118.29 517.143C114.272 509.711 113.711 499.971 118.644 493.112" fill="#F2F2F2"/>
<path d="M674.814 105.903C704.089 105.903 727.822 82.1954 727.822 52.9513C727.822 23.7071 704.089 0 674.814 0C645.538 0 621.806 23.7071 621.806 52.9513C621.806 82.1954 645.538 105.903 674.814 105.903Z" fill="#572AD7"/>
<path d="M770.473 12.3247C744.783 8.85589 715.454 22.7267 708.795 47.7537C707.117 43.3039 704.066 39.5022 700.084 36.8977C696.101 34.2933 691.393 33.021 686.639 33.2647C681.885 33.5084 677.332 35.2554 673.637 38.2534C669.942 41.2514 667.297 45.3451 666.083 49.9431L669.025 52.0473C724.078 63.9399 781.066 63.6825 836.01 51.2932C818.14 32.5329 796.163 15.7934 770.473 12.3247Z" fill="#F0F0F0"/>
<path d="M660.299 82.9262C634.609 79.4575 605.28 93.3282 598.621 118.355C596.943 113.905 593.893 110.104 589.91 107.499C585.927 104.895 581.219 103.623 576.465 103.866C571.711 104.11 567.158 105.857 563.463 108.855C559.768 111.853 557.123 115.947 555.91 120.545L558.851 122.649C613.904 134.541 670.893 134.284 725.836 121.895C707.966 103.134 685.989 86.3949 660.299 82.9262Z" fill="#F0F0F0"/>
<path d="M884.521 96.276C884.414 96.2762 884.308 96.2598 884.207 96.2273C609.389 9.40993 367.175 20.7628 212.375 45.5746C191.309 48.95 170.186 52.8485 149.593 57.1628C144.336 58.2629 138.882 59.4421 133.382 60.6699C126.815 62.131 120.334 63.6357 114.12 65.1404C111.437 65.7751 108.805 66.4149 106.227 67.0597C102.32 68.0229 98.3566 69.0267 94.1078 70.1298C89.36 71.3526 84.5361 72.6353 79.7671 73.9422C79.7497 73.9484 79.7319 73.9534 79.7138 73.9574L79.7143 73.9585C74.3276 75.4276 68.9694 76.9394 63.7877 78.4492C60.9832 79.2583 58.2752 80.0562 55.6813 80.844C55.3915 80.9241 55.1347 81.0012 54.8744 81.0803L54.3171 81.2496C53.9943 81.348 53.6756 81.4443 53.3569 81.5355L53.3366 81.5416L53.3371 81.5427L52.4936 81.8043C51.4878 82.1085 50.5062 82.4056 49.541 82.7016C24.0296 90.5575 10.0051 96.1463 9.86653 96.201C9.73984 96.2518 9.60439 96.2771 9.4679 96.2755C9.33141 96.2739 9.19657 96.2455 9.07108 96.1919C8.94558 96.1383 8.83187 96.0605 8.73647 95.963C8.64107 95.8655 8.56582 95.7502 8.51504 95.6236C8.46425 95.497 8.43893 95.3617 8.4405 95.2254C8.44206 95.089 8.4705 94.9544 8.52417 94.829C8.57785 94.7036 8.65571 94.59 8.75333 94.4948C8.85095 94.3995 8.96639 94.3243 9.09309 94.2736C9.23266 94.2188 23.3257 88.6017 48.9299 80.7164C49.8988 80.4193 50.8828 80.1222 51.8917 79.817L52.6753 79.5737C52.7022 79.5635 52.7291 79.5554 52.7565 79.5473C53.0737 79.4571 53.3904 79.3607 53.7122 79.2634L54.2704 79.0941C54.5485 79.0099 54.8226 78.9268 55.1032 78.8497C57.6794 78.067 60.3966 77.267 63.2081 76.4548C68.3918 74.9441 73.7552 73.4323 79.1459 71.9611C79.1627 71.955 79.1799 71.951 79.1967 71.9459V71.9449C83.9825 70.6339 88.8241 69.3462 93.5871 68.1193C97.8425 67.0152 101.814 66.0093 105.727 65.0441C108.316 64.4002 110.953 63.7591 113.636 63.1207C119.857 61.614 126.35 60.1073 132.93 58.6432C138.438 57.4143 143.901 56.2321 149.167 55.1309C169.791 50.8096 190.947 46.905 212.046 43.5245C367.068 18.6772 609.629 7.30601 884.833 94.2481C885.07 94.3227 885.272 94.4795 885.403 94.69C885.534 94.9006 885.585 95.151 885.548 95.396C885.51 95.641 885.386 95.8644 885.197 96.0258C885.009 96.1872 884.769 96.276 884.521 96.276Z" fill="#CCCCCC"/>
<path d="M273.344 435.903C272.984 434.852 272.379 433.902 271.577 433.131C271.282 432.857 270.962 432.61 270.621 432.394C267.908 430.587 263.855 430.182 261.277 432.394C261.018 432.619 260.778 432.865 260.56 433.131C259.791 434.076 259.001 435 258.19 435.903C256.86 437.419 255.498 438.883 254.074 440.305C253.669 440.7 253.264 441.105 252.848 441.499C252.609 441.738 252.37 441.967 252.131 442.195C251.216 443.067 250.281 443.908 249.335 444.739C248.836 445.185 248.337 445.621 247.828 446.047C247.069 446.68 246.31 447.314 245.541 447.926C245.468 447.978 245.396 448.03 245.323 448.092C245.302 448.103 245.292 448.124 245.271 448.134C245.26 448.134 245.25 448.134 245.24 448.155C245.212 448.166 245.187 448.184 245.167 448.207C244.938 448.362 244.782 448.466 244.668 448.56C244.71 448.539 244.751 448.508 244.793 448.487C244.606 448.632 244.408 448.778 244.221 448.923C242.402 450.262 240.542 451.55 238.64 452.754C233.934 455.763 228.991 458.384 223.86 460.593C223.517 460.728 223.163 460.873 222.81 461.008C209.376 466.506 194.802 468.652 180.351 467.259C178.875 467.144 177.399 466.989 175.924 466.791C174.219 466.542 172.525 466.241 170.841 465.899C164.431 464.621 158.159 462.729 152.112 460.25C144.547 456.79 137.353 452.574 130.638 447.667C129.599 446.93 128.549 446.192 127.499 445.476C128.694 442.548 129.869 439.62 131.012 436.671C131.584 435.249 132.135 433.827 132.675 432.394C136.926 421.357 140.917 410.217 144.742 399.035C148.609 387.707 152.257 376.314 155.687 364.855C156.04 363.692 156.383 362.529 156.716 361.367C158.514 355.313 160.239 349.247 161.892 343.166C162.048 342.574 162.214 341.993 162.36 341.401C162.838 339.656 163.306 337.912 163.763 336.168C164.802 332.233 162.453 327.53 158.317 326.585C156.325 326.075 154.213 326.357 152.425 327.372C150.637 328.386 149.314 330.055 148.734 332.025C148.287 333.707 147.84 335.379 147.382 337.061C145.189 345.19 142.882 353.292 140.46 361.367C140.107 362.529 139.753 363.692 139.4 364.855C134.058 382.443 128.192 399.855 121.803 417.09C121.034 419.177 120.255 421.257 119.465 423.33C119.08 424.347 118.696 425.365 118.301 426.382C117.542 428.386 116.762 430.39 115.983 432.394C115.536 433.567 115.079 434.74 114.621 435.903C114.32 436.64 114.029 437.377 113.738 438.104C110.774 437.041 107.704 436.303 104.581 435.903L104.082 435.841C101.661 435.55 99.2119 435.571 96.7959 435.903C93.18 436.325 89.7009 437.534 86.6046 439.447C83.5082 441.359 80.8702 443.928 78.8771 446.971C73.9193 454.768 73.9816 465.919 80.9351 472.543C88.0964 479.365 98.9371 479.313 107.366 475.046C111.833 472.631 115.6 469.105 118.301 464.808C119.335 463.251 120.286 461.639 121.149 459.98C121.367 460.126 121.585 460.271 121.803 460.427C122.635 461.008 123.466 461.6 124.287 462.182C129.072 465.644 134.113 468.736 139.369 471.432C150.669 477.044 162.833 480.719 175.352 482.303C175.633 482.334 175.903 482.376 176.183 482.407C177.566 482.583 178.959 482.718 180.351 482.833C200.33 484.337 220.334 480.252 238.12 471.038C239.627 470.259 241.12 469.442 242.6 468.588C244.897 467.259 247.142 465.847 249.335 464.352C250.53 463.542 251.694 462.721 252.848 461.86C257.889 458.15 262.589 453.998 266.89 449.452C268.522 447.739 270.084 445.971 271.577 444.147C272.99 442.655 273.803 440.696 273.864 438.644C273.856 437.707 273.68 436.779 273.344 435.903ZM101.234 460.635C101.452 460.479 101.671 460.313 101.878 460.147C101.816 460.302 101.515 460.479 101.234 460.635H101.234ZM104.57 457.281C104.331 457.551 104.113 457.821 103.874 458.091C103.147 458.904 102.366 459.667 101.535 460.375C101.421 460.479 101.296 460.583 101.172 460.676C101.17 460.676 101.169 460.676 101.168 460.677C101.166 460.677 101.165 460.678 101.164 460.679C101.163 460.68 101.163 460.681 101.162 460.682C101.162 460.684 101.161 460.685 101.161 460.686C101.011 460.753 100.865 460.83 100.725 460.915C100.278 461.185 99.8205 461.434 99.3528 461.662C98.437 461.999 97.4949 462.26 96.5361 462.441C95.7993 462.495 95.0599 462.502 94.3222 462.462H94.3014C93.7924 462.349 93.2894 462.21 92.7944 462.047C92.5449 461.922 92.3058 461.777 92.0668 461.631C91.9732 461.548 91.89 461.465 91.8381 461.413C91.7366 461.321 91.6428 461.22 91.5576 461.112C91.5576 461.111 91.5573 461.109 91.5568 461.108C91.5563 461.107 91.5556 461.106 91.5546 461.105C91.5536 461.104 91.5524 461.103 91.5512 461.102C91.5499 461.102 91.5485 461.102 91.5472 461.102C91.4328 460.894 91.3081 460.686 91.1938 460.479C91.1878 460.473 91.1841 460.466 91.1834 460.458C91.1002 460.198 91.0275 459.928 90.9651 459.659C90.9426 459.185 90.946 458.71 90.9755 458.236C91.115 457.573 91.3026 456.92 91.5368 456.284C91.7472 455.833 91.9868 455.396 92.2539 454.976C92.2747 454.934 92.3787 454.768 92.493 454.581C92.5034 454.571 92.5034 454.571 92.5034 454.561C92.6593 454.384 92.8152 454.197 92.9815 454.031C93.2621 453.72 93.5636 453.45 93.865 453.169C94.4512 452.786 95.0584 452.436 95.6839 452.121C96.6761 451.769 97.6943 451.494 98.7293 451.301C100.255 451.179 101.789 451.193 103.313 451.342C104.756 451.592 106.18 451.943 107.574 452.391C106.729 454.029 105.767 455.604 104.695 457.104C104.654 457.167 104.612 457.229 104.57 457.281ZM93.0126 453.865C92.9211 454.012 92.813 454.148 92.6904 454.27C92.7729 454.117 92.882 453.98 93.0126 453.865Z" fill="#3F3D56"/>
<path d="M242.101 329.866C242.007 333.126 241.914 336.386 241.82 339.646C241.623 346.883 241.418 354.123 241.207 361.366C240.989 369.517 240.76 377.664 240.521 385.807C240.407 390.012 240.289 394.217 240.167 398.422C239.845 409.749 239.527 421.073 239.211 432.394C239.18 433.567 239.138 434.73 239.107 435.903C238.951 441.52 238.795 447.137 238.64 452.754C238.463 458.849 238.29 464.943 238.12 471.038C237.995 475.606 237.867 480.178 237.735 484.753C236.8 517.905 235.865 551.056 234.929 584.208C234.89 586.261 234.056 588.219 232.602 589.671C231.149 591.122 229.189 591.956 227.134 591.995C225.071 591.978 223.098 591.153 221.64 589.696C220.182 588.239 219.355 586.268 219.338 584.208C219.858 565.561 220.385 546.914 220.918 528.267C221.386 511.405 221.861 494.544 222.342 477.683C222.498 472.128 222.654 466.57 222.81 461.008C223.049 452.64 223.285 444.271 223.517 435.903C223.548 434.73 223.589 433.567 223.621 432.394C223.641 431.366 223.673 430.348 223.704 429.32C224.161 413.072 224.618 396.819 225.076 380.564C225.263 374.168 225.443 367.769 225.616 361.366C225.824 354.067 226.032 346.772 226.24 339.48C226.333 336.272 226.417 333.074 226.51 329.866C226.55 327.813 227.384 325.855 228.837 324.403C230.29 322.951 232.25 322.118 234.305 322.079C236.368 322.095 238.341 322.921 239.799 324.378C241.257 325.834 242.084 327.805 242.101 329.866Z" fill="#3F3D56"/>
<path d="M669.729 332.026C661.555 362.945 651.785 393.421 640.459 423.332C637.334 431.583 634.137 439.817 630.719 447.951L631.505 446.091C629.979 449.966 628.031 453.661 625.695 457.109C625.536 457.331 625.374 457.551 625.21 457.77C626.017 456.738 626.171 456.534 625.67 457.158C625.406 457.47 625.145 457.783 624.872 458.088C624.145 458.901 623.364 459.665 622.535 460.375C622.326 460.554 622.114 460.728 621.899 460.899L622.873 460.142C622.76 460.409 621.966 460.762 621.719 460.913C620.918 461.396 620.083 461.819 619.22 462.178L621.082 461.393C619.667 461.963 618.191 462.367 616.684 462.599L618.756 462.32C617.275 462.525 615.774 462.541 614.289 462.368L616.361 462.646C615.146 462.479 613.957 462.159 612.822 461.694L614.685 462.479C614.079 462.216 613.496 461.905 612.94 461.549C612.658 461.365 611.791 460.709 612.924 461.574C614.102 462.473 613.076 461.652 612.833 461.413C612.631 461.214 612.449 460.997 612.251 460.795C611.334 459.856 613.287 462.411 612.664 461.312C612.331 460.762 612.026 460.195 611.751 459.613L612.537 461.473C612.179 460.588 611.925 459.664 611.78 458.72L612.059 460.79C611.91 459.617 611.909 458.429 612.055 457.255L611.777 459.325C611.968 458.015 612.315 456.732 612.811 455.504L612.025 457.365C612.371 456.539 612.78 455.741 613.249 454.978C613.465 454.584 613.719 454.211 614.007 453.866C614.058 453.882 612.688 455.436 613.415 454.652C613.605 454.447 613.783 454.23 613.975 454.027C614.283 453.701 614.613 453.403 614.937 453.094C616.023 452.062 613.418 454.097 614.67 453.28C615.579 452.684 616.534 452.163 617.528 451.724L615.666 452.509C617.33 451.826 619.075 451.358 620.858 451.118L618.785 451.396C621.018 451.139 623.274 451.166 625.5 451.475L623.428 451.197C626.247 451.624 629.002 452.398 631.631 453.502L629.769 452.717C635.37 455.119 640.332 458.686 645.284 462.184C650.068 465.644 655.108 468.735 660.362 471.431C671.662 477.044 683.827 480.72 696.347 482.305C714.303 484.503 732.524 482.16 749.337 475.493C766.151 468.826 781.02 458.048 792.578 444.147C793.989 442.653 794.801 440.694 794.862 438.641C794.847 436.579 794.028 434.604 792.578 433.135C789.719 430.512 784.316 429.772 781.554 433.135C778.937 436.327 776.123 439.353 773.128 442.196C771.73 443.521 770.295 444.805 768.823 446.048C767.982 446.758 767.129 447.454 766.265 448.136C765.856 448.458 764.583 449.317 766.539 447.931C766.09 448.249 765.66 448.596 765.218 448.922C758.672 453.742 751.579 457.773 744.085 460.929L745.947 460.144C737.907 463.514 729.462 465.825 720.824 467.02L722.897 466.742C714.012 467.91 705.011 467.896 696.129 466.703L698.201 466.981C689.322 465.762 680.637 463.4 672.366 459.951L674.228 460.736C666.246 457.208 658.67 452.825 651.635 447.663C647.974 444.955 644.113 442.528 640.085 440.402C635.392 438.008 630.311 436.465 625.078 435.845C615.268 434.692 605.271 438.509 599.878 446.976C594.914 454.768 594.978 465.917 601.929 472.543C609.088 479.367 619.929 479.309 628.366 475.041C636.491 470.93 641.372 462.389 644.804 454.336C652.527 436.213 659.366 417.671 665.737 399.035C672.04 380.598 677.756 361.974 682.885 343.163C683.52 340.833 684.146 338.501 684.763 336.167C685.803 332.233 683.452 327.528 679.318 326.588C677.326 326.075 675.212 326.356 673.423 327.371C671.634 328.386 670.31 330.055 669.729 332.026L669.729 332.026Z" fill="#3F3D56"/>
<path d="M747.508 329.865L744.703 429.323L741.911 528.263L740.333 584.209C740.351 586.268 741.178 588.239 742.636 589.695C744.094 591.152 746.066 591.978 748.128 591.995C750.183 591.956 752.143 591.123 753.596 589.671C755.05 588.219 755.884 586.261 755.924 584.209L758.729 484.75L761.521 385.81L763.099 329.865C763.081 327.805 762.254 325.835 760.796 324.378C759.338 322.922 757.366 322.096 755.304 322.078C753.249 322.118 751.289 322.951 749.835 324.403C748.382 325.855 747.548 327.812 747.508 329.865Z" fill="#3F3D56"/>
<path opacity="0.2" d="M477.688 556.44H480.109V446.341H536.577V443.929H480.109V397.473H523.717C523.077 396.661 522.419 395.859 521.743 395.067H480.109V364.384C479.308 364.043 478.501 363.714 477.688 363.404V395.067H430.239V355.753C429.426 355.791 428.625 355.846 427.818 355.915V395.067H389.964V365.735C389.151 366.095 388.35 366.473 387.556 366.87V395.067H355.734V397.473H387.556V443.929H355.734V446.341H387.556V556.44H389.964V446.341C394.935 446.34 399.858 447.317 404.451 449.217C409.044 451.117 413.218 453.903 416.733 457.414C420.248 460.926 423.037 465.095 424.939 469.683C426.841 474.271 427.819 479.188 427.818 484.154V556.44H430.239V446.341H477.688V556.44ZM389.964 443.929V397.473H427.818V443.929H389.964ZM430.239 443.929V397.473H431.188C437.295 397.473 443.342 398.675 448.984 401.01C454.626 403.345 459.752 406.767 464.07 411.081C468.388 415.395 471.813 420.516 474.15 426.152C476.486 431.788 477.689 437.829 477.688 443.929H430.239Z" fill="black"/>
<path d="M462.906 523.428C459.858 537.008 452.559 549.263 442.066 558.418C441.297 559.082 440.528 559.726 439.728 560.359C437.784 560.536 435.854 560.716 433.938 560.899C432.348 561.045 430.779 561.2 429.22 561.346L428.939 561.377L428.742 559.674L427.952 552.78C424.887 547.783 422.988 542.16 422.394 536.33C421.8 530.5 422.528 524.61 424.522 519.099C427.266 511.707 432.234 505.176 437.119 498.697C443.865 489.747 450.423 480.901 450.662 469.989C453.981 474.232 456.741 478.884 458.873 483.829C456.861 484.775 455.053 486.105 453.551 487.743C453.125 488.211 452.699 488.865 452.99 489.426C453.24 489.903 453.863 490.017 454.404 490.08C455.703 490.214 457.013 490.349 458.312 490.484C459.351 490.599 460.391 490.702 461.43 490.817C462.687 494.94 463.54 499.175 463.976 503.463C464.677 510.133 464.315 516.871 462.906 523.428Z" fill="#3F3D56"/>
<path d="M497.413 496.215C491.281 500.67 487.695 507.076 484.909 514.136C482.055 515.048 479.486 516.687 477.457 518.891C477.031 519.358 476.605 520.012 476.896 520.573C477.145 521.051 477.769 521.165 478.309 521.227C479.609 521.362 480.918 521.497 482.217 521.632C479.432 529.98 476.875 538.618 471.948 545.668C468.672 550.322 464.401 554.191 459.445 556.995C458.093 557.764 456.698 558.454 455.266 559.061C449.986 559.466 444.807 559.899 439.728 560.359C437.784 560.536 435.854 560.716 433.938 560.899C432.348 561.044 430.779 561.2 429.22 561.345C429.209 560.774 429.209 560.203 429.22 559.632C429.548 544.42 435.151 529.794 445.07 518.247C445.538 517.707 446.016 517.178 446.505 516.648C451.53 511.286 457.44 506.826 463.976 503.462C474.276 498.113 485.82 495.611 497.413 496.215Z" fill="#572AD7"/>
<path d="M435.736 555.573L434.541 559.103L433.938 560.899C432.348 561.045 430.779 561.2 429.22 561.346L428.939 561.377C427.214 561.553 425.499 561.73 423.784 561.906C423.337 561.387 422.89 560.858 422.453 560.318C411.604 547.194 406.397 530.315 407.968 513.368C409.54 496.421 417.763 480.784 430.841 469.875C429.469 477.049 431.07 483.923 433.699 490.744C433.419 490.858 433.148 490.972 432.889 491.097C430.877 492.043 429.069 493.373 427.567 495.011C427.141 495.478 426.715 496.133 427.006 496.693C427.255 497.171 427.879 497.285 428.419 497.347C429.719 497.482 431.028 497.617 432.327 497.752C433.367 497.866 434.406 497.97 435.445 498.084C435.934 498.136 436.422 498.188 436.911 498.24C436.984 498.396 437.046 498.541 437.119 498.697C440.081 505.113 443.272 511.561 445.07 518.247C445.521 519.925 445.875 521.627 446.13 523.345C446.931 529.152 446.412 535.064 444.613 540.643C442.813 546.222 439.78 551.325 435.736 555.573Z" fill="#572AD7"/>
<path d="M540.358 404.984C531.41 387.55 517.548 372.88 501.244 362.1C484.888 351.335 466.12 344.78 446.612 343.017C444.055 342.785 441.491 342.649 438.922 342.609C435.885 342.564 390.21 355.725 374.909 366.471C359.617 377.086 347.037 391.144 338.185 407.51C329.348 423.966 325.002 442.454 325.582 461.119C326.34 479.896 331.579 498.22 340.864 514.564C350.022 530.855 363.025 544.665 378.743 554.793C394.685 564.954 410.699 591.895 429.521 592.846C448.485 593.805 470.113 568.39 487.409 560.674C504.706 552.893 519.659 540.72 530.778 525.368C541.583 510.323 548.573 492.884 551.149 474.547C553.824 455.772 552.577 436.409 546.158 418.464C544.511 413.853 542.574 409.351 540.358 404.984C538.509 401.345 533.087 400.005 529.693 402.191C527.944 403.266 526.678 404.974 526.157 406.958C525.636 408.942 525.901 411.051 526.896 412.845C527.982 414.982 528.993 417.155 529.926 419.363L529.141 417.502C532.674 425.99 535.077 434.905 536.288 444.018L536.009 441.948C537.297 451.834 537.274 461.847 535.941 471.728L536.219 469.657C534.872 479.537 532.232 489.197 528.367 498.39L529.153 496.53C527.165 501.221 524.847 505.765 522.219 510.13C520.886 512.335 519.472 514.488 517.977 516.589C517.321 517.511 516.644 518.418 515.962 519.321C515.072 520.5 517.175 517.781 516.255 518.938C516.099 519.135 515.943 519.332 515.786 519.529C515.314 520.118 514.835 520.702 514.349 521.281C511.109 525.143 507.572 528.748 503.772 532.062C502.826 532.887 501.863 533.694 500.885 534.482C500.398 534.875 499.916 535.284 499.408 535.65C499.428 535.636 501.05 534.405 500.09 535.119C499.788 535.344 499.488 535.572 499.186 535.796C497.169 537.288 495.1 538.704 492.976 540.045C488.088 543.121 482.959 545.799 477.64 548.053L479.502 547.268C470.326 551.127 460.682 553.763 450.818 555.108L452.891 554.83C443.032 556.161 433.04 556.179 423.176 554.883L425.248 555.161C416.284 553.959 407.515 551.59 399.165 548.117L401.027 548.902C396.19 546.862 391.527 544.435 387.083 541.643C384.883 540.259 382.741 538.789 380.656 537.233C380.358 537.012 380.063 536.787 379.767 536.563C378.815 535.846 380.45 537.092 380.463 537.101C379.91 536.705 379.378 536.28 378.868 535.829C377.861 535.01 376.869 534.172 375.894 533.315C371.99 529.881 368.345 526.164 364.988 522.196C364.147 521.203 363.325 520.196 362.52 519.174C362.172 518.731 361.536 517.834 362.94 519.723C362.755 519.474 362.564 519.231 362.377 518.984C361.929 518.39 361.487 517.792 361.051 517.19C359.525 515.08 358.074 512.918 356.699 510.705C353.591 505.694 350.878 500.45 348.586 495.018L349.372 496.878C345.621 487.963 343.056 478.596 341.742 469.015L342.021 471.085C340.836 462.253 340.819 453.304 341.97 444.468L341.692 446.538C342.873 437.981 345.177 429.617 348.546 421.662L347.76 423.523C349.88 418.542 352.38 413.733 355.239 409.136C356.67 406.836 358.187 404.592 359.789 402.403C360.153 401.906 360.521 401.412 360.893 400.921C361.23 400.477 362.156 399.37 360.576 401.324C360.731 401.133 360.88 400.936 361.033 400.742C361.912 399.63 362.812 398.534 363.734 397.456C367.224 393.375 371.005 389.551 375.046 386.014C376.068 385.12 377.105 384.244 378.159 383.388C378.638 382.999 379.119 382.614 379.605 382.233C379.799 382.08 379.995 381.931 380.188 381.777C378.112 383.428 379.611 382.226 380.083 381.874C382.254 380.248 384.484 378.704 386.771 377.242C391.857 373.993 397.206 371.177 402.764 368.823L400.902 369.608C408.967 366.225 444.702 358.24 451.201 359.112L449.129 358.834C458.682 360.166 468.019 362.743 476.901 366.499L475.039 365.714C479.54 367.623 483.914 369.818 488.135 372.285C490.244 373.52 492.311 374.822 494.338 376.191C495.296 376.84 496.245 377.502 497.183 378.18C497.653 378.518 498.119 378.86 498.583 379.206C498.84 379.398 499.096 379.593 499.353 379.786C500.433 380.595 497.865 378.614 498.998 379.509C502.787 382.483 506.386 385.692 509.774 389.116C511.437 390.809 513.044 392.555 514.593 394.354C515.388 395.278 516.166 396.215 516.928 397.166C517.307 397.638 518.596 399.347 517.016 397.253C517.402 397.765 517.793 398.273 518.174 398.789C521.459 403.23 524.376 407.931 526.896 412.845C528.76 416.476 534.158 417.83 537.562 415.638C539.311 414.563 540.578 412.856 541.099 410.871C541.62 408.887 541.354 406.778 540.358 404.984Z" fill="#3F3D56"/>
<path d="M449.527 532.062C448.722 532.099 447.926 531.888 447.245 531.458C446.564 531.027 446.033 530.398 445.722 529.656C445.411 528.913 445.336 528.093 445.508 527.307C445.679 526.521 446.088 525.806 446.68 525.26C446.779 524.867 446.85 524.584 446.949 524.191C446.913 524.105 446.878 524.02 446.842 523.934C443.225 515.319 420.146 539.335 419.148 547.432C418.708 551.011 418.894 554.639 419.696 558.155C412.22 541.865 408.338 524.159 408.313 506.239C408.311 501.742 408.561 497.249 409.062 492.78C409.476 489.116 410.05 485.478 410.784 481.867C414.791 462.271 423.394 443.905 435.886 428.276C443.031 428.674 449.292 427.587 449.897 413.755C450.004 411.295 451.831 409.164 452.234 406.741C451.552 406.83 450.858 406.886 450.176 406.931C449.964 406.942 449.74 406.953 449.528 406.964L449.448 406.968C448.698 407.001 447.955 406.818 447.307 406.439C446.66 406.06 446.135 405.503 445.798 404.834C445.46 404.164 445.323 403.412 445.403 402.666C445.484 401.921 445.778 401.215 446.251 400.633C446.545 400.271 446.84 399.909 447.135 399.548C447.582 398.989 448.041 398.442 448.488 397.883C448.54 397.83 448.588 397.774 448.633 397.716C449.148 397.079 449.662 396.454 450.176 395.817C449.238 394.361 447.975 393.142 446.487 392.254C441.332 389.238 434.22 391.327 430.497 395.984C426.762 400.642 426.058 407.176 427.355 412.996C428.63 417.947 430.74 422.646 433.594 426.89C433.315 427.248 433.024 427.594 432.744 427.952C427.634 434.515 423.181 441.564 419.447 448.995C420.503 440.753 407.586 410.987 402.591 404.682C396.59 397.109 384.286 400.414 383.229 410.014C383.219 410.107 383.209 410.2 383.199 410.293C383.941 410.711 384.667 411.155 385.378 411.624C386.271 412.22 386.962 413.071 387.363 414.066C387.763 415.062 387.853 416.155 387.62 417.202C387.388 418.249 386.845 419.201 386.061 419.935C385.278 420.668 384.291 421.148 383.229 421.311L383.121 421.328C373.189 435.494 405.028 472.363 412.998 464.085C409.247 474.704 406.894 485.765 405.998 496.99C405.491 503.613 405.521 510.266 406.088 516.883L406.054 516.649C404.283 502.235 373.905 480.805 365.034 482.59C359.923 483.619 354.89 483.385 355.666 488.534C355.678 488.616 355.691 488.699 355.704 488.781C357.081 489.341 358.421 489.986 359.718 490.713C360.46 491.131 361.186 491.575 361.897 492.045C362.789 492.64 363.481 493.492 363.881 494.487C364.281 495.482 364.371 496.575 364.139 497.622C363.907 498.669 363.363 499.622 362.58 500.355C361.796 501.089 360.809 501.568 359.748 501.732L359.639 501.749C359.561 501.76 359.494 501.771 359.416 501.782C354.895 517.321 388.422 542.399 408.805 534.419H408.816C410.836 543.188 413.762 551.722 417.549 559.886H448.745C448.857 559.54 448.958 559.182 449.058 558.836C446.171 559.017 443.272 558.845 440.426 558.322C442.741 555.485 445.055 552.626 447.37 549.789C447.421 549.736 447.47 549.68 447.515 549.621C448.689 548.169 449.874 546.728 451.049 545.276L451.049 545.275C451.112 540.824 450.6 536.383 449.528 532.063L449.527 532.062ZM413.803 461.862L413.819 461.84L413.803 461.885V461.862ZM406.893 524.088L406.624 523.485C406.636 523.049 406.636 522.613 406.624 522.167C406.624 522.044 406.602 521.921 406.602 521.798C406.703 522.569 406.792 523.339 406.904 524.11L406.893 524.088Z" fill="#3F3D56"/>
<path d="M98.9995 467.217C105.314 467.217 110.433 462.103 110.433 455.796C110.433 449.488 105.314 444.375 98.9995 444.375C92.6852 444.375 87.5664 449.488 87.5664 455.796C87.5664 462.103 92.6852 467.217 98.9995 467.217Z" fill="#3F3D56"/>
<path d="M236.197 591.808C242.511 591.808 247.63 586.695 247.63 580.387C247.63 574.08 242.511 568.966 236.197 568.966C229.882 568.966 224.764 574.08 224.764 580.387C224.764 586.695 229.882 591.808 236.197 591.808Z" fill="#3F3D56"/>
<path d="M756.924 591.808C763.239 591.808 768.357 586.695 768.357 580.387C768.357 574.08 763.239 568.966 756.924 568.966C750.61 568.966 745.491 574.08 745.491 580.387C745.491 586.695 750.61 591.808 756.924 591.808Z" fill="#3F3D56"/>
<path d="M784.987 446.452C791.302 446.452 796.421 441.338 796.421 435.031C796.421 428.723 791.302 423.61 784.987 423.61C778.673 423.61 773.554 428.723 773.554 435.031C773.554 441.338 778.673 446.452 784.987 446.452Z" fill="#3F3D56"/>
<path d="M751.728 340.549C758.042 340.549 763.161 335.436 763.161 329.128C763.161 322.821 758.042 317.708 751.728 317.708C745.413 317.708 740.294 322.821 740.294 329.128C740.294 335.436 745.413 340.549 751.728 340.549Z" fill="#3F3D56"/>
<path d="M274.654 435.031C274.647 437.948 273.518 440.751 271.499 442.86C269.481 444.969 266.729 446.221 263.812 446.359C260.894 446.497 258.036 445.51 255.827 443.601C253.619 441.692 252.23 439.008 251.947 436.104C251.664 433.201 252.51 430.3 254.309 428.001C256.108 425.703 258.723 424.184 261.612 423.758C264.501 423.332 267.444 424.032 269.831 425.713C272.218 427.394 273.866 429.927 274.436 432.788C274.582 433.527 274.655 434.278 274.654 435.031Z" fill="#3F3D56"/>
<path d="M503.316 373.773C509.631 373.773 514.75 368.66 514.75 362.352C514.75 356.045 509.631 350.932 503.316 350.932C497.002 350.932 491.883 356.045 491.883 362.352C491.883 368.66 497.002 373.773 503.316 373.773Z" fill="#3F3D56"/>
<path d="M390.024 362.353C390.018 365.27 388.888 368.073 386.87 370.182C384.852 372.29 382.099 373.543 379.182 373.681C376.265 373.819 373.406 372.831 371.198 370.922C368.99 369.014 367.6 366.33 367.318 363.426C367.035 360.522 367.881 357.621 369.68 355.323C371.479 353.025 374.093 351.506 376.983 351.08C379.872 350.654 382.814 351.354 385.201 353.035C387.588 354.715 389.237 357.249 389.806 360.11C389.953 360.849 390.026 361.6 390.024 362.353Z" fill="#3F3D56"/>
<path d="M242.433 329.129C242.426 332.046 241.297 334.849 239.279 336.958C237.261 339.066 234.508 340.319 231.591 340.457C228.674 340.595 225.815 339.607 223.607 337.698C221.398 335.789 220.009 333.105 219.726 330.202C219.444 327.298 220.289 324.397 222.088 322.099C223.887 319.801 226.502 318.282 229.391 317.856C232.28 317.43 235.223 318.13 237.61 319.81C239.997 321.491 241.646 324.025 242.215 326.886C242.361 327.624 242.435 328.376 242.433 329.129Z" fill="#3F3D56"/>
<path d="M622.845 471.37C629.159 471.37 634.278 466.257 634.278 459.949C634.278 453.642 629.159 448.528 622.845 448.528C616.53 448.528 611.412 453.642 611.412 459.949C611.412 466.257 616.53 471.37 622.845 471.37Z" fill="#3F3D56"/>
<path d="M443.033 367.544C452.217 367.544 459.663 360.107 459.663 350.932C459.663 341.757 452.217 334.32 443.033 334.32C433.848 334.32 426.403 341.757 426.403 350.932C426.403 360.107 433.848 367.544 443.033 367.544Z" fill="#3F3D56"/>
<path d="M892.762 592.681L1.23756 593C1.07504 593 0.914106 592.968 0.763958 592.906C0.61381 592.844 0.47739 592.753 0.362472 592.638C0.247553 592.523 0.156384 592.387 0.0941903 592.237C0.0319968 592.087 0 591.926 0 591.764C0 591.601 0.0319968 591.441 0.0941903 591.291C0.156384 591.141 0.247553 591.004 0.362472 590.89C0.47739 590.775 0.61381 590.684 0.763958 590.622C0.914106 590.56 1.07504 590.528 1.23756 590.528L892.762 590.208C893.09 590.209 893.404 590.34 893.635 590.572C893.867 590.804 893.996 591.117 893.996 591.445C893.996 591.772 893.867 592.086 893.635 592.318C893.404 592.549 893.09 592.68 892.762 592.681Z" fill="#CACACA"/>
</svg>
