<svg width="63" height="60" viewBox="0 0 63 60" fill="none" xmlns="http://www.w3.org/2000/svg">
<rect opacity="0.1" width="62.4639" height="60" rx="30" fill="#5B93FF"/>
<path fill-rule="evenodd" clip-rule="evenodd" d="M22.9034 22H35.3962C35.3962 22.2652 35.5059 22.5196 35.7011 22.7071C35.8964 22.8946 36.1612 23 36.4373 23C36.7134 23 36.9782 22.8946 37.1734 22.7071C37.3687 22.5196 37.4783 22.2652 37.4783 22H39.5605C40.1127 22 40.6423 22.2107 41.0328 22.5858C41.4232 22.9609 41.6426 23.4696 41.6426 24V36C41.6426 36.5304 41.4232 37.0391 41.0328 37.4142C40.6423 37.7893 40.1127 38 39.5605 38H37.4783C37.4783 37.7348 37.3687 37.4804 37.1734 37.2929C36.9782 37.1054 36.7134 37 36.4373 37C36.1612 37 35.8964 37.1054 35.7011 37.2929C35.5059 37.4804 35.3962 37.7348 35.3962 38H22.9034C22.3512 38 21.8216 37.7893 21.4311 37.4142C21.0407 37.0391 20.8213 36.5304 20.8213 36V24C20.8213 23.4696 21.0407 22.9609 21.4311 22.5858C21.8216 22.2107 22.3512 22 22.9034 22V22ZM37.4783 26.001C37.4783 26.2662 37.3687 26.5206 37.1734 26.7081C36.9782 26.8956 36.7134 27.001 36.4373 27.001C36.1612 27.001 35.8964 26.8956 35.7011 26.7081C35.5059 26.5206 35.3962 26.2662 35.3962 26.001V26C35.3962 25.7348 35.5059 25.4804 35.7011 25.2929C35.8964 25.1054 36.1612 25 36.4373 25C36.7134 25 36.9782 25.1054 37.1734 25.2929C37.3687 25.4804 37.4783 25.7348 37.4783 26V26.001V26.001ZM36.4373 31.001C36.7134 31.001 36.9782 30.8956 37.1734 30.7081C37.3687 30.5206 37.4783 30.2662 37.4783 30.001V30C37.4783 29.7348 37.3687 29.4804 37.1734 29.2929C36.9782 29.1054 36.7134 29 36.4373 29C36.1612 29 35.8964 29.1054 35.7011 29.2929C35.5059 29.4804 35.3962 29.7348 35.3962 30V30.001C35.3962 30.2662 35.5059 30.5206 35.7011 30.7081C35.8964 30.8956 36.1612 31.001 36.4373 31.001V31.001ZM37.4783 34.001C37.4783 34.2662 37.3687 34.5206 37.1734 34.7081C36.9782 34.8956 36.7134 35.001 36.4373 35.001C36.1612 35.001 35.8964 34.8956 35.7011 34.7081C35.5059 34.5206 35.3962 34.2662 35.3962 34.001V34C35.3962 33.7348 35.5059 33.4804 35.7011 33.2929C35.8964 33.1054 36.1612 33 36.4373 33C36.7134 33 36.9782 33.1054 37.1734 33.2929C37.3687 33.4804 37.4783 33.7348 37.4783 34V34.001Z" fill="#417DFF"/>
</svg>
