<svg width="64" height="60" viewBox="0 0 64 60" fill="none" xmlns="http://www.w3.org/2000/svg">
<rect opacity="0.1" x="0.857422" width="62.4639" height="60" rx="30" fill="#6EFF6B"/>
<path d="M32.0892 18.625C25.5496 18.625 20.2471 23.7184 20.2471 30C20.2471 36.2816 25.5496 41.375 32.0892 41.375C38.6288 41.375 43.9313 36.2816 43.9313 30C43.9313 23.7184 38.6288 18.625 32.0892 18.625ZM32.6787 35.5148L32.6839 36.3197C32.6839 36.4314 32.5888 36.5254 32.4725 36.5254H31.7218C31.6055 36.5254 31.5103 36.434 31.5103 36.3223V35.525C29.163 35.3574 28.0581 34.0727 27.9392 32.6762C27.9286 32.5568 28.0264 32.4553 28.1506 32.4553H29.3718C29.4749 32.4553 29.5648 32.5264 29.5807 32.6229C29.7155 33.4277 30.3684 34.0295 31.5394 34.1793V30.5561L30.8865 30.3961C29.504 30.0787 28.1876 29.251 28.1876 27.5346C28.1876 25.6836 29.652 24.6883 31.5235 24.5131V23.6752C31.5235 23.5635 31.6187 23.4721 31.735 23.4721H32.4778C32.5941 23.4721 32.6892 23.5635 32.6892 23.6752V24.5055C34.4999 24.6807 35.8586 25.6963 36.0172 27.2781C36.0304 27.3975 35.9326 27.5016 35.8057 27.5016H34.6189C34.5131 27.5016 34.4233 27.4254 34.41 27.3264C34.3043 26.585 33.6858 25.9807 32.6787 25.8486V29.2586L33.3501 29.4084C35.0629 29.8146 36.2286 30.6018 36.2286 32.3639C36.2286 34.2758 34.7484 35.3422 32.6787 35.5148ZM29.8318 27.4178C29.8318 28.0627 30.2468 28.5629 31.1402 28.8727C31.2645 28.9209 31.3887 28.959 31.5367 28.9996V25.8512C30.5613 25.9705 29.8318 26.4961 29.8318 27.4178ZM32.9113 30.8506C32.8373 30.8354 32.7632 30.8176 32.6787 30.7947V34.1895C33.8047 34.093 34.5819 33.4988 34.5819 32.5035C34.5819 31.724 34.1616 31.2162 32.9113 30.8506Z" fill="#00BF00"/>
</svg>
