<svg width="797" height="477" viewBox="0 0 797 477" fill="none" xmlns="http://www.w3.org/2000/svg">
<g clip-path="url(#clip0_57_445)">
<path d="M610.202 471.606C599.998 462.975 593.8 449.34 595.426 436.066C597.051 422.793 607.118 410.59 620.177 407.772C633.236 404.953 648.122 412.755 652.088 425.525C654.271 400.905 656.786 375.254 669.862 354.288C681.701 335.304 702.208 321.72 724.432 319.29C746.657 316.859 770.056 326.038 783.916 343.598C797.777 361.158 801.171 386.687 791.463 406.847C784.312 421.698 771.137 432.751 757.333 441.743C712.726 470.554 659.227 482.27 606.678 474.736L610.202 471.606Z" fill="#F2F2F2"/>
<path d="M761.939 326.547C743.602 341.499 726.778 358.222 711.713 376.474C688.137 404.94 669.058 436.856 655.143 471.109C654.124 473.608 658.178 474.696 659.185 472.225C681.953 416.556 718.301 367.49 764.903 329.514C766.996 327.808 764.015 324.855 761.939 326.547Z" fill="white"/>
<path d="M256.567 469.261C270.582 457.406 279.095 438.678 276.862 420.447C274.63 402.216 260.803 385.456 242.867 381.584C224.93 377.713 204.485 388.43 199.037 405.969C196.039 372.154 192.584 336.922 174.624 308.125C158.363 282.05 130.197 263.392 99.6719 260.054C69.1467 256.717 37.0076 269.323 17.9701 293.442C-1.06734 317.561 -5.72857 352.624 7.60476 380.314C17.427 400.713 35.5229 415.894 54.483 428.244C114.972 467.646 190.009 484.079 261.407 473.56" fill="#F2F2F2"/>
<path d="M48.1559 270.022C73.3429 290.559 96.4494 313.528 117.141 338.597C137.836 363.64 156.056 390.633 171.544 419.198C180.202 435.222 187.979 451.706 194.841 468.579C196.24 472.011 190.673 473.505 189.289 470.111C177.134 440.365 162.097 411.883 144.392 385.074C126.773 358.362 106.608 333.424 84.1787 310.61C71.4926 297.713 58.1078 285.524 44.0847 274.097C41.2104 271.754 45.3053 267.698 48.1559 270.022L48.1559 270.022Z" fill="white"/>
<path d="M572.099 475.956H237.726V132.516C237.726 59.4461 297.109 0 370.101 0H439.724C512.716 0 572.099 59.4461 572.099 132.516V475.956Z" fill="#F2F2F2"/>
<path d="M502.476 475.956H237.726V132.516C237.653 104.517 246.509 77.2262 263.006 54.6164C263.614 53.7867 264.221 52.9677 264.846 52.1576C272.826 41.6811 282.321 32.4547 293.02 24.7827C293.624 24.3426 294.231 23.91 294.847 23.4775C303.799 17.2757 313.483 12.206 323.678 8.38351C324.284 8.15379 324.9 7.92363 325.516 7.70286C334.737 4.40884 344.295 2.15245 354.014 0.975356C354.617 0.892958 355.236 0.82848 355.854 0.764002C365.326 -0.249784 374.878 -0.249784 384.35 0.764002C384.967 0.82848 385.585 0.89295 386.195 0.976238C395.912 2.15341 405.467 4.40952 414.686 7.7029C415.302 7.92367 415.919 8.15382 416.526 8.38398C426.595 12.1582 436.165 17.1523 445.022 23.2549C445.638 23.6781 446.253 24.1106 446.86 24.5432C452.857 28.8284 458.49 33.6024 463.701 38.8164C467.88 42.9986 471.775 47.4566 475.358 52.1604C475.982 52.9677 476.588 53.7867 477.195 54.6151C493.692 77.2252 502.549 104.517 502.476 132.516V475.956Z" fill="#CCCCCC"/>
<path d="M480.948 322.348C489.044 322.348 495.606 315.778 495.606 307.675C495.606 299.571 489.044 293.002 480.948 293.002C472.853 293.002 466.291 299.571 466.291 307.675C466.291 315.778 472.853 322.348 480.948 322.348Z" fill="#572AD7"/>
<path d="M544.707 465.669H533.476L528.132 422.303L544.709 422.304L544.707 465.669Z" fill="#FFB8B8"/>
<path d="M525.454 462.457H547.114V476.109H511.816C511.816 474.316 512.169 472.541 512.854 470.884C513.539 469.228 514.544 467.723 515.81 466.455C517.077 465.187 518.58 464.182 520.235 463.496C521.889 462.81 523.663 462.457 525.454 462.457Z" fill="#2F2E41"/>
<path d="M600.589 465.669H589.358L584.014 422.303L600.591 422.304L600.589 465.669Z" fill="#FFB8B8"/>
<path d="M581.335 462.457H602.995V476.109H567.697C567.697 474.316 568.05 472.541 568.735 470.884C569.421 469.228 570.425 467.723 571.692 466.455C572.958 465.187 574.462 464.182 576.116 463.496C577.771 462.81 579.544 462.457 581.335 462.457Z" fill="#2F2E41"/>
<path d="M488.366 310.582C487.558 309.39 487.021 308.035 486.793 306.613C486.564 305.191 486.65 303.736 487.044 302.351C487.438 300.966 488.131 299.684 489.073 298.596C490.015 297.508 491.185 296.639 492.498 296.052L530.677 190.712L549.464 200.976L505.872 301.642C506.71 303.917 506.686 306.421 505.804 308.679C504.922 310.938 503.243 312.794 501.085 313.895C498.928 314.997 496.441 315.269 494.097 314.658C491.753 314.047 489.714 312.597 488.366 310.582Z" fill="#FFB8B8"/>
<path d="M594.852 330.375C593.604 329.659 592.528 328.677 591.699 327.5C590.871 326.322 590.311 324.977 590.058 323.559C589.806 322.141 589.867 320.685 590.237 319.293C590.607 317.901 591.278 316.608 592.201 315.504L580.374 204.072L601.753 205.05L606.669 314.657C608.419 316.334 609.494 318.595 609.691 321.011C609.887 323.428 609.191 325.833 607.734 327.771C606.278 329.708 604.162 331.043 601.787 331.523C599.413 332.003 596.945 331.595 594.852 330.375Z" fill="#FFB8B8"/>
<path d="M560.745 171.201C573.172 171.201 583.245 161.116 583.245 148.677C583.245 136.237 573.172 126.153 560.745 126.153C548.319 126.153 538.245 136.237 538.245 148.677C538.245 161.116 548.319 171.201 560.745 171.201Z" fill="#FFB8B8"/>
<path d="M594.708 305.032H526.875L526.956 304.504C527.078 303.714 539.046 225.234 530.219 199.559C529.333 197.036 529.411 194.274 530.438 191.805C531.464 189.336 533.367 187.334 535.779 186.185H535.779C548.396 180.238 572.613 172.914 593.053 190.687C596.061 193.345 598.41 196.668 599.914 200.392C601.418 204.115 602.036 208.139 601.719 212.143L594.708 305.032Z" fill="#572AD7"/>
<path d="M539.903 236.832L509.363 230.63L523.678 196.671C524.535 193.382 526.66 190.567 529.587 188.844C532.514 187.122 536.004 186.631 539.291 187.481C542.579 188.33 545.396 190.451 547.124 193.377C548.852 196.302 549.35 199.795 548.51 203.088L539.903 236.832Z" fill="#572AD7"/>
<path d="M579.016 248.348L577.18 206.217C575.788 198.297 580.317 190.81 587.282 189.586C594.25 188.367 601.053 193.86 602.451 201.838L609.352 241.205L579.016 248.348Z" fill="#572AD7"/>
<path d="M592.451 299.989C603.366 341.602 604.557 394.51 601.612 452.221L586.955 450.387L560.388 340.339L545.731 452.221L529.241 451.304C524.315 390.751 519.518 338.766 527.409 304.574L592.451 299.989Z" fill="#2F2E41"/>
<path d="M575.57 166.084C571.373 170.56 563.578 168.157 563.031 162.042C562.988 161.568 562.991 161.09 563.04 160.616C563.322 157.907 564.886 155.448 564.511 152.588C564.426 151.876 564.161 151.198 563.741 150.617C560.397 146.134 552.545 152.623 549.388 148.564C547.452 146.075 549.728 142.156 548.242 139.374C546.282 135.703 540.475 137.514 536.833 135.503C532.782 133.266 533.024 127.043 535.691 123.258C538.944 118.642 544.647 116.179 550.278 115.824C555.91 115.469 561.503 116.993 566.761 119.044C572.735 121.375 578.659 124.595 582.335 129.854C586.806 136.249 587.236 144.846 585 152.323C583.64 156.872 578.998 162.429 575.57 166.084Z" fill="#2F2E41"/>
<path d="M769.5 476.546H93.1552C92.8665 476.545 92.5899 476.43 92.386 476.225C92.1821 476.02 92.0676 475.743 92.0676 475.454C92.0676 475.165 92.1821 474.888 92.386 474.683C92.5899 474.478 92.8665 474.363 93.1552 474.362H769.5C769.789 474.363 770.066 474.478 770.27 474.683C770.474 474.888 770.588 475.165 770.588 475.454C770.588 475.743 770.474 476.02 770.27 476.225C770.066 476.43 769.789 476.545 769.5 476.546Z" fill="#3F3D56"/>
<path d="M429.647 376.455H310.555C308.987 376.463 307.479 375.848 306.363 374.745C305.246 373.642 304.613 372.141 304.601 370.571V104.468C304.613 102.898 305.246 101.396 306.363 100.293C307.479 99.1905 308.987 98.5759 310.555 98.5843H429.647C431.216 98.5759 432.723 99.1905 433.84 100.293C434.956 101.396 435.59 102.898 435.602 104.468V370.571C435.59 372.141 434.956 373.642 433.84 374.745C432.723 375.848 431.216 376.463 429.647 376.455Z" fill="white"/>
<path d="M435.602 184.687H304.601V186.521H435.602V184.687Z" fill="#CCCCCC"/>
<path d="M436.06 289.333H305.059V291.168H436.06V289.333Z" fill="#CCCCCC"/>
<path d="M347.657 98.5842H345.825V377.372H347.657V98.5842Z" fill="#CCCCCC"/>
<path d="M393.832 99H392V377.787H393.832V99Z" fill="#CCCCCC"/>
</g>
<defs>
<clipPath id="clip0_57_445">
<rect width="797" height="477" fill="white"/>
</clipPath>
</defs>
</svg>
