<svg width="63" height="60" viewBox="0 0 63 60" fill="none" xmlns="http://www.w3.org/2000/svg">
<rect opacity="0.2" x="0.150391" width="62.4639" height="60" rx="30" fill="#FFD66B"/>
<path fill-rule="evenodd" clip-rule="evenodd" d="M35.5466 22H23.0538C22.5016 22 21.972 22.2107 21.5815 22.5858C21.191 22.9609 20.9717 23.4696 20.9717 24V36C20.9717 36.5304 21.191 37.0391 21.5815 37.4142C21.972 37.7893 22.5016 38 23.0538 38H35.5466C35.5466 37.7348 35.6563 37.4804 35.8515 37.2929C36.0468 37.1054 36.3116 37 36.5877 37C36.8638 37 37.1286 37.1054 37.3238 37.2929C37.519 37.4804 37.6287 37.7348 37.6287 38H39.7109C40.2631 38 40.7927 37.7893 41.1831 37.4142C41.5736 37.0391 41.793 36.5304 41.793 36V24C41.793 23.4696 41.5736 22.9609 41.1831 22.5858C40.7927 22.2107 40.2631 22 39.7109 22H37.6287C37.6287 22.2652 37.519 22.5196 37.3238 22.7071C37.1286 22.8946 36.8638 23 36.5877 23C36.3116 23 36.0468 22.8946 35.8515 22.7071C35.6563 22.5196 35.5466 22.2652 35.5466 22ZM36.5877 27.001C36.8638 27.001 37.1286 26.8956 37.3238 26.7081C37.519 26.5206 37.6287 26.2662 37.6287 26.001V26C37.6287 25.7348 37.519 25.4804 37.3238 25.2929C37.1286 25.1054 36.8638 25 36.5877 25C36.3116 25 36.0468 25.1054 35.8515 25.2929C35.6563 25.4804 35.5466 25.7348 35.5466 26V26.001C35.5466 26.2662 35.6563 26.5206 35.8515 26.7081C36.0468 26.8956 36.3116 27.001 36.5877 27.001V27.001ZM37.6287 30.001C37.6287 30.2662 37.519 30.5206 37.3238 30.7081C37.1286 30.8956 36.8638 31.001 36.5877 31.001C36.3116 31.001 36.0468 30.8956 35.8515 30.7081C35.6563 30.5206 35.5466 30.2662 35.5466 30.001V30C35.5466 29.7348 35.6563 29.4804 35.8515 29.2929C36.0468 29.1054 36.3116 29 36.5877 29C36.8638 29 37.1286 29.1054 37.3238 29.2929C37.519 29.4804 37.6287 29.7348 37.6287 30V30.001V30.001ZM36.5877 35.001C36.8638 35.001 37.1286 34.8956 37.3238 34.7081C37.519 34.5206 37.6287 34.2662 37.6287 34.001V34C37.6287 33.7348 37.519 33.4804 37.3238 33.2929C37.1286 33.1054 36.8638 33 36.5877 33C36.3116 33 36.0468 33.1054 35.8515 33.2929C35.6563 33.4804 35.5466 33.7348 35.5466 34V34.001C35.5466 34.2662 35.6563 34.5206 35.8515 34.7081C36.0468 34.8956 36.3116 35.001 36.5877 35.001ZM33.2896 27.555C33.4428 27.3343 33.4985 27.0642 33.4444 26.8041C33.3904 26.544 33.2309 26.3152 33.0012 26.168C32.7715 26.0208 32.4903 25.9673 32.2195 26.0192C31.9487 26.0712 31.7105 26.2243 31.5572 26.445L28.0978 31.43L26.913 30.293C26.7167 30.1108 26.4537 30.01 26.1808 30.0123C25.9078 30.0146 25.6467 30.1198 25.4537 30.3052C25.2606 30.4906 25.1511 30.7414 25.1488 31.0036C25.1464 31.2658 25.2513 31.5184 25.441 31.707L27.5231 33.707C27.632 33.8118 27.7637 33.8921 27.9089 33.942C28.054 33.9919 28.2088 34.0103 28.3622 33.9957C28.5156 33.9812 28.6637 33.9341 28.7959 33.8579C28.928 33.7817 29.0409 33.6782 29.1263 33.555L33.2906 27.555H33.2896Z" fill="#FFCB3B"/>
</svg>
